Coordinates
version=1
nRows=26
nColumns=22
inDegrees=yes

Units are S.I. units (second, meters, Newtons, ...)
If the header above contains a line with 'inDegrees', this indicates whether rotational values are in degrees (yes) or radians (no).

endheader
time	pelvis_tilt	pelvis_list	pelvis_rotation	pelvis_tx	pelvis_ty	pelvis_tz	hip_flexion_r	hip_adduction_r	hip_rotation_r	knee_angle_r	ankle_angle_r	subtalar_angle_r	hip_flexion_l	hip_adduction_l	hip_rotation_l	knee_angle_l	ankle_angle_l	subtalar_angle_l	lumbar_extension	lumbar_bending	lumbar_rotation
      0.01000000	     -0.17016055	     -2.80740664	      0.42640408	     -1.03939689	      0.94711775	     -0.31173974	      4.32738001	      0.38255951	    -13.87677573	    -13.62205910	      9.53996311	      4.57101764	      3.12460898	     -4.42936431	    -12.58919445	    -15.21269717	     12.88624839	     -0.18634988	     -8.24137140	     -0.68033033	     -5.21899544
      0.02000000	     -0.18310755	     -2.81512209	      0.39481029	     -1.03909765	      0.94708563	     -0.31172203	      4.31016589	      0.39236943	    -13.87210503	    -13.59550727	      9.53874976	      4.57988968	      3.10171097	     -4.43472284	    -12.61471443	    -15.19368788	     12.90662194	     -0.20505438	     -8.19975927	     -0.66462868	     -5.24441460
      0.03000000	     -0.19774912	     -2.83798926	      0.33140634	     -1.03877954	      0.94705022	     -0.31164812	      4.29040906	      0.42629831	    -13.81117892	    -13.55466126	      9.53100831	      4.59626525	      3.07657240	     -4.46027895	    -12.67372912	    -15.18253240	     12.95016627	     -0.23709607	     -8.16015844	     -0.63328336	     -5.22734566
      0.04000000	     -0.21801828	     -2.84827758	      0.28553355	     -1.03842647	      0.94700792	     -0.31161273	      4.28123859	      0.43875234	    -13.80693491	    -13.53259155	      9.53328835	      4.59880497	      3.05033882	     -4.46780809	    -12.71183893	    -15.15429431	     12.96326974	     -0.24077277	     -8.11203230	     -0.61399889	     -5.25254226
      0.05000000	     -0.23986407	     -2.87332861	      0.21070231	     -1.03806324	      0.94696487	     -0.31152569	      4.26345505	      0.47745137	    -13.72214758	    -13.48531145	      9.52071357	      4.60399688	      3.02539088	     -4.49653785	    -12.79255381	    -15.13857705	     13.00225142	     -0.24645318	     -8.06285546	     -0.58073111	     -5.22137852
      0.06000000	     -0.26242009	     -2.88490161	      0.16743914	     -1.03768643	      0.94692179	     -0.31150457	      4.25072085	      0.49168606	    -13.71378796	    -13.45661751	      9.51974982	      4.60516425	      2.99953376	     -4.50461679	    -12.83420746	    -15.10844942	     13.01521814	     -0.24670435	     -8.01362100	     -0.55843314	     -5.24095214
      0.07000000	     -0.28333119	     -2.91154307	      0.10112510	     -1.03733562	      0.94688784	     -0.31142766	      4.22695815	      0.53290227	    -13.63924795	    -13.39942996	      9.49764576	      4.60724033	      2.97508060	     -4.53410037	    -12.90030092	    -15.09093378	     13.04517767	     -0.24525753	     -7.97604550	     -0.52434789	     -5.21673184
      0.08000000	     -0.30653553	     -2.92240992	      0.06613444	     -1.03697876	      0.94685129	     -0.31142550	      4.21202330	      0.54596972	    -13.63896953	    -13.36399497	      9.49594319	      4.60813706	      2.95361809	     -4.54031399	    -12.93374210	    -15.06210361	     13.05579581	     -0.24439920	     -7.93649581	     -0.50343294	     -5.23565814
      0.09000000	     -0.32158460	     -2.95260424	      0.02277673	     -1.03664605	      0.94683541	     -0.31139192	      4.17437851	      0.59031943	    -13.58237726	    -13.29464786	      9.46527472	      4.60840763	      2.93091548	     -4.57219622	    -12.97701647	    -15.04938893	     13.08200932	     -0.23898710	     -7.91515315	     -0.46438508	     -5.22471398
      0.10000000	     -0.34377646	     -2.96175961	      0.00075533	     -1.03631923	      0.94680787	     -0.31141302	      4.15691908	      0.60128840	    -13.58992976	    -13.25479332	      9.46330943	      4.60831437	      2.91593967	     -4.57665274	    -13.00234957	    -15.02601319	     13.09139415	     -0.23655983	     -7.88802108	     -0.44736238	     -5.24223546
      0.11000000	     -0.35503908	     -2.99264510	     -0.01384188	     -1.03603114	      0.94680733	     -0.31143576	      4.11092100	      0.64404006	    -13.56231869	    -13.17632254	      9.43314636	      4.60273935	      2.90197266	     -4.60798347	    -13.02338348	    -15.01989670	     13.11444017	     -0.22416608	     -7.88704060	     -0.40525700	     -5.25361454
      0.12000000	     -0.37577683	     -3.00038851	     -0.02648271	     -1.03572588	      0.94678852	     -0.31146819	      4.09061994	      0.65365342	    -13.57495025	    -13.13378386	      9.43092945	      4.60097540	      2.89319097	     -4.61220024	    -13.04314847	    -15.00459728	     13.12252491	     -0.21993741	     -7.86841943	     -0.39358320	     -5.27020969
      0.13000000	     -0.38351378	     -3.03171780	     -0.02417175	     -1.03547111	      0.94679610	     -0.31151233	      4.04092032	      0.69568673	    -13.56648473	    -13.05459958	      9.40156951	      4.59029833	      2.89039096	     -4.64616197	    -13.04993956	    -15.01663084	     13.14098829	     -0.20335085	     -7.88107895	     -0.35301459	     -5.29729247
      0.14000000	     -0.39687434	     -3.05029560	     -0.02537014	     -1.03522163	      0.94679439	     -0.31155514	      4.00602567	      0.72059702	    -13.57437936	    -12.99148157	      9.38460496	      4.58299174	      2.89106426	     -4.66493628	    -13.06157464	    -15.02273530	     13.15428968	     -0.19133053	     -7.88868296	     -0.33048996	     -5.31668218
      0.15000000	     -0.41747392	     -3.05748202	     -0.03111323	     -1.03498481	      0.94678053	     -0.31159952	      3.98492708	      0.73016335	    -13.58384527	    -12.93781215	      9.38347833	      4.58193037	      2.90081185	     -4.67058906	    -13.07181354	    -15.02973354	     13.15917458	     -0.18932066	     -7.89088153	     -0.32303984	     -5.32137534
      0.16000000	     -0.42819991	     -3.08850280	     -0.03217838	     -1.03475691	      0.94678269	     -0.31163733	      3.94386538	      0.77112545	    -13.57433896	    -12.86561824	      9.35757808	      4.57835036	      2.91765366	     -4.70737771	    -13.07998501	    -15.07026179	     13.17711040	     -0.18719858	     -7.90745593	     -0.28523008	     -5.34305830
      0.17000000	     -0.44656348	     -3.09429081	     -0.04274978	     -1.03452150	      0.94677427	     -0.31167291	      3.91980351	      0.77964813	    -13.58306080	    -12.81015649	      9.35262859	      4.57910493	      2.93278294	     -4.71271223	    -13.08562946	    -15.09412510	     13.18497126	     -0.18719129	     -7.91411952	     -0.28184504	     -5.33147215
      0.18000000	     -0.45667934	     -3.12944947	     -0.05200250	     -1.03429756	      0.94677718	     -0.31169994	      3.87854057	      0.82608522	    -13.56095710	    -12.73666954	      9.31831350	      4.58245192	      2.95359177	     -4.75621013	    -13.10634596	    -15.14565535	     13.21226860	     -0.18811458	     -7.93396272	     -0.24034124	     -5.34254307
      0.19000000	     -0.47371106	     -3.13300554	     -0.07027927	     -1.03405659	      0.94677153	     -0.31172794	      3.85610235	      0.83161457	    -13.56845834	    -12.68741691	      9.31151329	      4.58546604	      2.96726071	     -4.75845134	    -13.10916460	    -15.17300669	     13.22006050	     -0.18772275	     -7.94143497	     -0.23996363	     -5.32220840
      0.20000000	     -0.48470902	     -3.16625032	     -0.08645526	     -1.03383895	      0.94677710	     -0.31174394	      3.81532932	      0.87664413	    -13.53587533	    -12.61083033	      9.26878426	      4.59899449	      2.98787076	     -4.80104103	    -13.14169678	    -15.22319510	     13.24919216	     -0.18659800	     -7.96350369	     -0.20264079	     -5.31884344
      0.21000000	     -0.50181817	     -3.17028424	     -0.10404460	     -1.03362377	      0.94677268	     -0.31177132	      3.79555116	      0.88273615	    -13.53985173	    -12.56300965	      9.25634492	      4.60638070	      3.00276734	     -4.80427359	    -13.14654398	    -15.24772741	     13.25719866	     -0.18554470	     -7.97816771	     -0.20261586	     -5.29370768
      0.22000000	     -0.51712928	     -3.17991027	     -0.12321675	     -1.03341751	      0.94677095	     -0.31179271	      3.77023837	      0.89714922	    -13.53068309	    -12.50656866	      9.23523079	      4.61820729	      3.02180259	     -4.81613712	    -13.16031081	    -15.28423310	     13.26571604	     -0.18544333	     -7.99569286	     -0.19580756	     -5.27361854
      0.23000000	     -0.53089592	     -3.19479797	     -0.14387912	     -1.03323378	      0.94676976	     -0.31181035	      3.74694727	      0.91744093	    -13.51405360	    -12.45412164	      9.20446863	      4.63493592	      3.04283904	     -4.83521339	    -13.17796147	    -15.32522776	     13.27650251	     -0.18601536	     -8.01862349	     -0.18294313	     -5.25225333
      0.24000000	     -0.54742627	     -3.19798407	     -0.16570113	     -1.03306252	      0.94676105	     -0.31184335	      3.74780201	      0.91817916	    -13.51794219	    -12.44240010	      9.20293555	      4.63649953	      3.04937788	     -4.83311285	    -13.17682766	    -15.32875878	     13.27733912	     -0.18602296	     -8.03927922	     -0.18000993	     -5.25340335
      0.25000000	     -0.56178496	     -3.22868218	     -0.18848515	     -1.03292065	      0.94674983	     -0.31184238	      3.72042109	      0.96113500	    -13.47490084	    -12.37337092	      9.14660958	      4.67012610	      3.09570686	     -4.87828163	    -13.22019225	    -15.41381319	     13.30023458	     -0.19173514	     -8.06588756	     -0.15101977	     -5.21843080
      0.26000000	     -0.57601684	     -3.23042908	     -0.20798639	     -1.03278048	      0.94673281	     -0.31187624	      3.71556436	      0.96163562	    -13.47743554	    -12.34971092	      9.14170871	      4.67649592	      3.11708426	     -4.87775373	    -13.21261056	    -15.44707441	     13.30399665	     -0.19314675	     -8.09111424	     -0.15464368	     -5.19004798
